<svg width="32" height="28" viewBox="0 0 32 28" fill="none" xmlns="http://www.w3.org/2000/svg">
<path d="M7.21094 27.2C5.21094 27.2 3.64427 26.4333 2.51094 24.9C1.44427 23.3 0.910938 21.0667 0.910938 18.2C0.910938 14.2 1.81094 10.7333 3.61094 7.8C5.41094 4.86666 8.04427 2.4 11.5109 0.399996L13.9109 4.3C11.3776 5.96666 9.4776 7.76666 8.21094 9.7C6.94427 11.5667 6.31094 13.9 6.31094 16.7C6.51094 16.6333 6.81094 16.6 7.21094 16.6C8.54427 16.6 9.74427 17.0333 10.8109 17.9C11.9443 18.7667 12.5109 20.0333 12.5109 21.7C12.5109 23.3667 12.0109 24.7 11.0109 25.7C10.0109 26.7 8.74427 27.2 7.21094 27.2ZM24.9109 27.2C22.9109 27.2 21.3443 26.4333 20.2109 24.9C19.1443 23.3 18.6109 21.0667 18.6109 18.2C18.6109 14.2 19.5109 10.7333 21.3109 7.8C23.1109 4.86666 25.7443 2.4 29.2109 0.399996L31.6109 4.3C29.0776 5.96666 27.1776 7.76666 25.9109 9.7C24.6443 11.5667 24.0109 13.9 24.0109 16.7C24.2109 16.6333 24.5109 16.6 24.9109 16.6C26.2443 16.6 27.4443 17.0333 28.5109 17.9C29.6443 18.7667 30.2109 20.0333 30.2109 21.7C30.2109 23.3667 29.7109 24.7 28.7109 25.7C27.7109 26.7 26.4443 27.2 24.9109 27.2Z" fill="#FEBE32"/>
</svg>
